cl__1 = 1;
Point(1) = {0, 0, 0, 1};
Point(2) = {0, 10, 0, 1};
Point(3) = {10, 10, 0, 1};
Point(4) = {10, 0, 0, 1};
Point(5) = {0, 23, 0, 1};
Point(6) = {10, 23, 0, 1};
Point(7) = {0, 13, 0, 1};
Point(8) = {10, 13, 0, 1};
Point(9) = {23, 10, 0, 1};
Point(10) = {13, 10, 0, 1};
Point(11) = {13, 0, 0, 1};
Point(12) = {23, 0, 0, 1};
Point(13) = {13, 13, 0, 1};
Point(14) = {13, 23, 0, 1};
Point(15) = {23, 23, 0, 1};
Point(16) = {23, 13, 0, 1};
Point(25) = {0, 26, 0, 1};
Point(26) = {10, 26, 0, 1};
Point(27) = {-3, 26, 0, 1};
Point(28) = {13, 26, 0, 1};
Point(29) = {23, 26, 0, 1};
Point(30) = {26, 26, 0, 1};
Point(32) = {-3, -3, 0, 1};
Point(36) = {26, -3, 0, 1};
Point(37) = {10, 23, 2, 1};
Point(38) = {0, 23, 2, 1};
Point(42) = {0, 13, 2, 1};
Point(46) = {10, 13, 2, 1};
Point(47) = {13, 23, 2, 1};
Point(48) = {23, 23, 2, 1};
Point(52) = {23, 13, 2, 1};
Point(56) = {13, 13, 2, 1};
Point(57) = {13, 10, 2, 1};
Point(58) = {23, 10, 2, 1};
Point(62) = {23, 0, 2, 1};
Point(66) = {13, 0, 2, 1};
Point(67) = {0, 10, 2, 1};
Point(68) = {10, 10, 2, 1};
Point(72) = {10, 0, 2, 1};
Point(76) = {0, 0, 2, 1};
Point(141) = {0, 26, 2, 1};
Point(142) = {-3, 26, 2, 1};
Point(146) = {-3, -3, 2, 1};
Point(150) = {26, -3, 2, 1};
Point(154) = {26, 26, 2, 1};
Point(158) = {23, 26, 2, 1};
Point(162) = {13, 26, 2, 1};
Point(166) = {10, 26, 2, 1};
Point(167) = {9.9, 24.2, 11, 1};
Point(168) = {-1.1, 24.2, 11, 1};
Point(172) = {-1.1, 13.2, 11, 1};
Point(176) = {9.9, 13.2, 11, 1};
Point(183) = {9.9, 24.2, 13.2, 1};
Point(184) = {-1.1, 24.2, 13.2, 1};
Point(188) = {-1.1, 13.2, 13.2, 1};
Point(192) = {9.9, 13.2, 13.2, 1};
Point(193) = {13.2, 24.2, 11, 1};
Point(194) = {24.2, 24.2, 11, 1};
Point(198) = {24.2, 13.2, 11, 1};
Point(202) = {13.2, 13.2, 11, 1};
Point(209) = {13.2, 24.2, 13.2, 1};
Point(210) = {24.2, 24.2, 13.2, 1};
Point(214) = {24.2, 13.2, 13.2, 1};
Point(218) = {13.2, 13.2, 13.2, 1};
Point(219) = {13.2, 9.9, 11, 1};
Point(220) = {24.2, 9.9, 11, 1};
Point(224) = {24.2, -1.1, 11, 1};
Point(228) = {13.2, -1.1, 11, 1};
Point(235) = {13.2, 9.9, 13.2, 1};
Point(236) = {24.2, 9.9, 13.2, 1};
Point(240) = {24.2, -1.1, 13.2, 1};
Point(244) = {13.2, -1.1, 13.2, 1};
Point(245) = {-1.1, 9.9, 11, 1};
Point(246) = {9.9, 9.9, 11, 1};
Point(250) = {9.9, -1.1, 11, 1};
Point(254) = {-1.1, -1.1, 11, 1};
Point(261) = {-1.1, 9.9, 13.2, 1};
Point(262) = {9.9, 9.9, 13.2, 1};
Point(266) = {9.9, -1.1, 13.2, 1};
Point(270) = {-1.1, -1.1, 13.2, 1};
Point(335) = {-1.1, 27.5, 11, 1};
Point(336) = {-4.4, 27.5, 11, 1};
Point(340) = {-4.4, -4.4, 11, 1};
Point(344) = {27.5, -4.4, 11, 1};
Point(348) = {27.5, 27.5, 11, 1};
Point(352) = {24.2, 27.5, 11, 1};
Point(356) = {13.2, 27.5, 11, 1};
Point(360) = {9.9, 27.5, 11, 1};
Point(431) = {-1.1, 27.5, 13.2, 1};
Point(432) = {-4.4, 27.5, 13.2, 1};
Point(436) = {-4.4, -4.4, 13.2, 1};
Point(440) = {27.5, -4.4, 13.2, 1};
Point(444) = {27.5, 27.5, 13.2, 1};
Point(448) = {24.2, 27.5, 13.2, 1};
Point(452) = {13.2, 27.5, 13.2, 1};
Point(456) = {9.9, 27.5, 13.2, 1};
Point(457) = {28.5, 28.5, 14.2, 1};
Point(458) = {-5.4, 28.5, 14.2, 1};
Point(459) = {-5.4, -5.4, 14.2, 1};
Point(460) = {28.5, -5.4, 14.2, 1};
Point(461) = {28.5, 28.5, -0.9999999999999982, 1};
Point(462) = {28.5, -5.4, -0.9999999999999982, 1};
Point(466) = {-5.4, -5.4, -0.9999999999999982, 1};
Point(470) = {-5.4, 28.5, -0.9999999999999982, 1};
Line(1) = {6, 5};
Line(2) = {5, 7};
Line(3) = {8, 6};
Line(4) = {8, 7};
Line(5) = {2, 3};
Line(6) = {4, 3};
Line(7) = {2, 1};
Line(8) = {1, 4};
Line(9) = {11, 10};
Line(10) = {10, 9};
Line(11) = {9, 12};
Line(12) = {12, 11};
Line(13) = {14, 15};
Line(14) = {16, 15};
Line(15) = {13, 14};
Line(16) = {13, 16};
Line(17) = {27, 25};
Line(18) = {25, 26};
Line(19) = {28, 26};
Line(20) = {30, 29};
Line(21) = {29, 28};
Line(22) = {27, 32};
Line(23) = {32, 36};
Line(24) = {36, 30};
Line(36) = {37, 38};
Line(37) = {38, 42};
Line(38) = {42, 46};
Line(39) = {46, 37};
Line(41) = {6, 37};
Line(42) = {5, 38};
Line(46) = {7, 42};
Line(50) = {8, 46};
Line(58) = {47, 48};
Line(59) = {48, 52};
Line(60) = {52, 56};
Line(61) = {56, 47};
Line(63) = {14, 47};
Line(64) = {15, 48};
Line(68) = {16, 52};
Line(72) = {13, 56};
Line(80) = {57, 58};
Line(81) = {58, 62};
Line(82) = {62, 66};
Line(83) = {66, 57};
Line(85) = {10, 57};
Line(86) = {9, 58};
Line(90) = {12, 62};
Line(94) = {11, 66};
Line(102) = {67, 68};
Line(103) = {68, 72};
Line(104) = {72, 76};
Line(105) = {76, 67};
Line(107) = {2, 67};
Line(108) = {3, 68};
Line(112) = {4, 72};
Line(116) = {1, 76};
Line(140) = {141, 142};
Line(141) = {142, 146};
Line(142) = {146, 150};
Line(143) = {150, 154};
Line(144) = {154, 158};
Line(145) = {158, 162};
Line(146) = {162, 166};
Line(147) = {166, 141};
Line(213) = {25, 141};
Line(214) = {27, 142};
Line(218) = {32, 146};
Line(222) = {36, 150};
Line(226) = {30, 154};
Line(230) = {29, 158};
Line(234) = {28, 162};
Line(238) = {26, 166};
Line(247) = {167, 168};
Line(248) = {168, 172};
Line(249) = {172, 176};
Line(250) = {176, 167};
Line(252) = {183, 184};
Line(253) = {184, 188};
Line(254) = {188, 192};
Line(255) = {192, 183};
Line(258) = {168, 184};
Line(260) = {183, 167};
Line(263) = {172, 188};
Line(268) = {176, 192};
Line(274) = {193, 194};
Line(275) = {194, 198};
Line(276) = {198, 202};
Line(277) = {202, 193};
Line(279) = {209, 210};
Line(280) = {210, 214};
Line(281) = {214, 218};
Line(282) = {218, 209};
Line(285) = {194, 210};
Line(287) = {209, 193};
Line(290) = {198, 214};
Line(295) = {202, 218};
Line(301) = {219, 220};
Line(302) = {220, 224};
Line(303) = {224, 228};
Line(304) = {228, 219};
Line(306) = {235, 236};
Line(307) = {236, 240};
Line(308) = {240, 244};
Line(309) = {244, 235};
Line(312) = {220, 236};
Line(314) = {235, 219};
Line(317) = {224, 240};
Line(322) = {228, 244};
Line(328) = {245, 246};
Line(329) = {246, 250};
Line(330) = {250, 254};
Line(331) = {254, 245};
Line(333) = {261, 262};
Line(334) = {262, 266};
Line(335) = {266, 270};
Line(336) = {270, 261};
Line(339) = {246, 262};
Line(341) = {261, 245};
Line(344) = {250, 266};
Line(349) = {254, 270};
Line(371) = {335, 336};
Line(372) = {336, 340};
Line(373) = {340, 344};
Line(374) = {344, 348};
Line(375) = {348, 352};
Line(376) = {352, 356};
Line(377) = {356, 360};
Line(378) = {360, 335};
Line(396) = {431, 432};
Line(397) = {432, 436};
Line(398) = {436, 440};
Line(399) = {440, 444};
Line(400) = {444, 448};
Line(401) = {448, 452};
Line(402) = {452, 456};
Line(403) = {456, 431};
Line(486) = {336, 432};
Line(488) = {431, 335};
Line(491) = {340, 436};
Line(496) = {344, 440};
Line(501) = {348, 444};
Line(506) = {352, 448};
Line(511) = {356, 452};
Line(516) = {360, 456};
Line(520) = {458, 457};
Line(521) = {457, 460};
Line(522) = {460, 459};
Line(523) = {459, 458};
Line(527) = {461, 462};
Line(528) = {462, 466};
Line(529) = {466, 470};
Line(530) = {470, 461};
Line(532) = {457, 461};
Line(533) = {460, 462};
Line(537) = {459, 466};
Line(541) = {458, 470};
Line Loop(26) = {1, 2, -4, 3};
Plane Surface(26) = {26};
Line Loop(28) = {13, -14, -16, 15};
Plane Surface(28) = {28};
Line Loop(30) = {10, 11, 12, 9};
Plane Surface(30) = {30};
Line Loop(32) = {5, -6, -8, -7};
Plane Surface(32) = {32};
Line Loop(34) = {1, 2, -4, 3, -15, 16, 14, -13, -9, -12, -11, -10, 7, 8, 6, -5, -17, 22, 23, 24, 20, 21, 19, -18};
Plane Surface(34) = {34};
Line Loop(43) = {1, 42, -36, -41};
Ruled Surface(43) = {43};
Line Loop(47) = {2, 46, -37, -42};
Ruled Surface(47) = {47};
Line Loop(51) = {-4, 50, -38, -46};
Ruled Surface(51) = {51};
Line Loop(55) = {3, 41, -39, -50};
Ruled Surface(55) = {55};
Line Loop(56) = {36, 37, 38, 39};
Plane Surface(56) = {56};
Line Loop(65) = {13, 64, -58, -63};
Ruled Surface(65) = {65};
Line Loop(69) = {-14, 68, -59, -64};
Ruled Surface(69) = {69};
Line Loop(73) = {-16, 72, -60, -68};
Ruled Surface(73) = {73};
Line Loop(77) = {15, 63, -61, -72};
Ruled Surface(77) = {77};
Line Loop(78) = {58, 59, 60, 61};
Plane Surface(78) = {78};
Line Loop(87) = {10, 86, -80, -85};
Ruled Surface(87) = {87};
Line Loop(91) = {11, 90, -81, -86};
Ruled Surface(91) = {91};
Line Loop(95) = {12, 94, -82, -90};
Ruled Surface(95) = {95};
Line Loop(99) = {9, 85, -83, -94};
Ruled Surface(99) = {99};
Line Loop(100) = {80, 81, 82, 83};
Plane Surface(100) = {100};
Line Loop(109) = {5, 108, -102, -107};
Ruled Surface(109) = {109};
Line Loop(113) = {-6, 112, -103, -108};
Ruled Surface(113) = {113};
Line Loop(117) = {-8, 116, -104, -112};
Ruled Surface(117) = {117};
Line Loop(121) = {-7, 107, -105, -116};
Ruled Surface(121) = {121};
Line Loop(122) = {102, 103, 104, 105};
Plane Surface(122) = {122};
Line Loop(215) = {-17, 214, -140, -213};
Ruled Surface(215) = {215};
Line Loop(219) = {22, 218, -141, -214};
Ruled Surface(219) = {219};
Line Loop(223) = {23, 222, -142, -218};
Ruled Surface(223) = {223};
Line Loop(227) = {24, 226, -143, -222};
Ruled Surface(227) = {227};
Line Loop(231) = {20, 230, -144, -226};
Ruled Surface(231) = {231};
Line Loop(235) = {21, 234, -145, -230};
Ruled Surface(235) = {235};
Line Loop(239) = {19, 238, -146, -234};
Ruled Surface(239) = {239};
Line Loop(243) = {-18, 213, -147, -238};
Ruled Surface(243) = {243};
Line Loop(244) = {36, 37, 38, 39, -61, -60, -59, -58, -83, -82, -81, -80, -105, -104, -103, -102, 140, 141, 142, 143, 144, 145, 146, 147};
Plane Surface(244) = {244};
Line Loop(246) = {247, 248, 249, 250};
Plane Surface(246) = {246};
Line Loop(251) = {252, 253, 254, 255};
Plane Surface(251) = {251};
Line Loop(256) = {247, 258, -252, 260};
Ruled Surface(256) = {256};
Line Loop(261) = {248, 263, -253, -258};
Ruled Surface(261) = {261};
Line Loop(266) = {249, 268, -254, -263};
Ruled Surface(266) = {266};
Line Loop(271) = {250, -260, -255, -268};
Ruled Surface(271) = {271};
Line Loop(273) = {274, 275, 276, 277};
Plane Surface(273) = {273};
Line Loop(278) = {279, 280, 281, 282};
Plane Surface(278) = {278};
Line Loop(283) = {274, 285, -279, 287};
Ruled Surface(283) = {283};
Line Loop(288) = {275, 290, -280, -285};
Ruled Surface(288) = {288};
Line Loop(293) = {276, 295, -281, -290};
Ruled Surface(293) = {293};
Line Loop(298) = {277, -287, -282, -295};
Ruled Surface(298) = {298};
Line Loop(300) = {301, 302, 303, 304};
Plane Surface(300) = {300};
Line Loop(305) = {306, 307, 308, 309};
Plane Surface(305) = {305};
Line Loop(310) = {301, 312, -306, 314};
Ruled Surface(310) = {310};
Line Loop(315) = {302, 317, -307, -312};
Ruled Surface(315) = {315};
Line Loop(320) = {303, 322, -308, -317};
Ruled Surface(320) = {320};
Line Loop(325) = {304, -314, -309, -322};
Ruled Surface(325) = {325};
Line Loop(327) = {328, 329, 330, 331};
Plane Surface(327) = {327};
Line Loop(332) = {333, 334, 335, 336};
Plane Surface(332) = {332};
Line Loop(337) = {328, 339, -333, 341};
Ruled Surface(337) = {337};
Line Loop(342) = {329, 344, -334, -339};
Ruled Surface(342) = {342};
Line Loop(347) = {330, 349, -335, -344};
Ruled Surface(347) = {347};
Line Loop(352) = {331, -341, -336, -349};
Ruled Surface(352) = {352};
Line Loop(354) = {247, 248, 249, 250, -277, -276, -275, -274, -304, -303, -302, -301, -331, -330, -329, -328, 371, 372, 373, 374, 375, 376, 377, 378};
Plane Surface(354) = {354};
Line Loop(379) = {252, 253, 254, 255, -282, -281, -280, -279, -309, -308, -307, -306, -336, -335, -334, -333, 396, 397, 398, 399, 400, 401, 402, 403};
Plane Surface(379) = {379};
Line Loop(484) = {371, 486, -396, 488};
Ruled Surface(484) = {484};
Line Loop(489) = {372, 491, -397, -486};
Ruled Surface(489) = {489};
Line Loop(494) = {373, 496, -398, -491};
Ruled Surface(494) = {494};
Line Loop(499) = {374, 501, -399, -496};
Ruled Surface(499) = {499};
Line Loop(504) = {375, 506, -400, -501};
Ruled Surface(504) = {504};
Line Loop(509) = {376, 511, -401, -506};
Ruled Surface(509) = {509};
Line Loop(514) = {377, 516, -402, -511};
Ruled Surface(514) = {514};
Line Loop(519) = {378, -488, -403, -516};
Ruled Surface(519) = {519};
Line Loop(525) = {521, 522, 523, 520};
Plane Surface(525) = {525};
Line Loop(534) = {521, 533, -527, -532};
Ruled Surface(534) = {534};
Line Loop(538) = {522, 537, -528, -533};
Ruled Surface(538) = {538};
Line Loop(542) = {523, 541, -529, -537};
Ruled Surface(542) = {542};
Line Loop(546) = {520, 532, -530, -541};
Ruled Surface(546) = {546};
Line Loop(547) = {527, 528, 529, 530};
Plane Surface(547) = {547};
Surface Loop(1) = {26, 56, 43, 47, 51, 55};
Volume(1) = {1};
Surface Loop(2) = {28, 78, 65, 69, 73, 77};
Volume(2) = {2};
Surface Loop(3) = {30, 100, 87, 91, 95, 99};
Volume(3) = {3};
Surface Loop(4) = {32, 122, 109, 113, 117, 121};
Volume(4) = {4};
Surface Loop(5) = {34, 244, 43, 47, 51, 55, 77, 73, 69, 65, 99, 95, 91, 87, 121, 117, 113, 109, 215, 219, 223, 227, 231, 235, 239, 243};
Volume(5) = {5};
Surface Loop(245) = {246, 251, 256, 261, 266, 271};
Volume(245) = {245};
Surface Loop(272) = {273, 278, 283, 288, 293, 298};
Volume(272) = {272};
Surface Loop(299) = {300, 305, 310, 315, 320, 325};
Volume(299) = {299};
Surface Loop(326) = {327, 332, 337, 342, 347, 352};
Volume(326) = {326};
Surface Loop(353) = {354, 379, 256, 261, 266, 271, 298, 293, 288, 283, 325, 320, 315, 310, 352, 347, 342, 337, 484, 489, 494, 499, 504, 509, 514, 519};
Volume(353) = {353};
Surface Loop(551) = {534, 525, 538, 542, 546, 547, 379, 484, 354, 489, 494, 499, 504, 509, 514, 519, 251, 246, 273, 278, 305, 300, 332, 327, 56, 26, 78, 28, 100, 30, 32, 122, 244, 215, 34, 219, 223, 227, 231, 235, 239, 243};
Volume(551) = {551};
Physical Surface("OuterHousing") = {525, 534, 538, 542, 546, 547};
Physical Surface("NegTerminal") = {239};
Physical Surface("PosTerminal") = {514};
Physical Surface("ElectrolyteActivMass") = {26, 28, 30, 32, 56, 78, 100, 122, 246, 251, 273, 278, 300, 305, 327, 332};
Physical Surface("GridElectrolyte") = {34, 215, 219, 223, 227, 231, 235, 243, 244, 354, 379, 484, 489, 494, 499, 504, 509, 519};
Physical Surface("GridActivMass") = {43, 47, 51, 55, 65, 69, 73, 77, 87, 91, 95, 99, 109, 113, 117, 121, 256, 261, 266, 271, 283, 288, 293, 298, 310, 315, 320, 325, 337, 342, 347, 352};
Physical Volume("PositiveGrid") = {353};
Physical Volume("PositiveMass") = {245, 272, 299, 326};
Physical Volume("NegativeMass") = {1, 2, 3, 4};
Physical Volume("NegativeGrid") = {5};
Physical Volume("Electrolyte") = {551};
