cl__1 = 1;
Point(1) = {0, 0, 0, 1};
Point(2) = {0.001, 0, 0, 1};
Point(3) = {0.001, 0.01, 0, 1};
Point(4) = {0, 0.01, 0, 1};
Point(5) = {0, 0.01, 0.001, 1};
Point(6) = {0.001, 0.01, 0.001, 1};
Point(10) = {0.001, 0, 0.001, 1};
Point(14) = {0, 0, 0.001, 1};
Point(15) = {0, 0.01, 0.011, 1};
Point(16) = {0.001, 0.01, 0.011, 1};
Point(20) = {0.001, 0, 0.011, 1};
Point(24) = {0, 0, 0.011, 1};
Point(25) = {0.002, 0.01, 0, 1};
Point(26) = {0.003, 0.01, 0, 1};
Point(30) = {0.003, 0, 0, 1};
Point(34) = {0.002, 0, 0, 1};
Point(41) = {0.002, 0.01, 0.001, 1};
Point(42) = {0.003, 0.01, 0.001, 1};
Point(46) = {0.003, 0, 0.001, 1};
Point(50) = {0.002, 0, 0.001, 1};
Point(137) = {0.002, 0.01, 0.011, 1};
Point(138) = {0.003, 0.01, 0.011, 1};
Point(142) = {0.003, 0, 0.011, 1};
Point(146) = {0.002, 0, 0.011, 1};
Point(147) = {-0.001, -0.001, 0.012, 1};
Point(148) = {-0.001, 0.011, 0.012, 1};
Point(149) = {0.004, 0.011, 0.012, 1};
Point(150) = {0.004, -0.001, 0.012, 1};
Point(151) = {0.004, 0.011, 8.673617379884035e-19, 1};
Point(152) = {0.004, -0.001, 8.673617379884035e-19, 1};
Point(153) = {-0.001, 0.011, 8.673617379884035e-19, 1};
Point(155) = {-0.001, -0.001, 8.673617379884035e-19, 1};
Line(1) = {4, 3};
Line(2) = {3, 2};
Line(3) = {2, 1};
Line(4) = {1, 4};
Line(8) = {5, 6};
Line(9) = {6, 10};
Line(10) = {10, 14};
Line(11) = {14, 5};
Line(13) = {4, 5};
Line(14) = {3, 6};
Line(18) = {2, 10};
Line(22) = {1, 14};
Line(30) = {15, 16};
Line(31) = {16, 20};
Line(32) = {20, 24};
Line(33) = {24, 15};
Line(35) = {5, 15};
Line(36) = {6, 16};
Line(40) = {10, 20};
Line(44) = {14, 24};
Line(53) = {25, 26};
Line(54) = {26, 30};
Line(55) = {30, 34};
Line(56) = {34, 25};
Line(58) = {41, 42};
Line(59) = {42, 46};
Line(60) = {46, 50};
Line(61) = {50, 41};
Line(64) = {26, 42};
Line(66) = {41, 25};
Line(69) = {30, 46};
Line(74) = {34, 50};
Line(89) = {137, 138};
Line(90) = {138, 142};
Line(91) = {142, 146};
Line(92) = {146, 137};
Line(95) = {42, 138};
Line(97) = {137, 41};
Line(100) = {46, 142};
Line(105) = {50, 146};
Line(109) = {148, 147};
Line(110) = {149, 150};
Line(111) = {148, 149};
Line(112) = {147, 150};
Line(114) = {151, 152};
Line(115) = {149, 151};
Line(116) = {150, 152};
Line(118) = {153, 151};
Line(119) = {148, 153};
Line(122) = {153, 155};
Line(124) = {147, 155};
Line(126) = {155, 152};
Line Loop(6) = {1, 2, 3, 4};
Plane Surface(6) = {6};
Line Loop(15) = {1, 14, -8, -13};
Ruled Surface(15) = {15};
Line Loop(19) = {2, 18, -9, -14};
Ruled Surface(19) = {19};
Line Loop(23) = {3, 22, -10, -18};
Ruled Surface(23) = {23};
Line Loop(27) = {4, 13, -11, -22};
Ruled Surface(27) = {27};
Line Loop(28) = {8, 9, 10, 11};
Plane Surface(28) = {28};
Line Loop(37) = {8, 36, -30, -35};
Ruled Surface(37) = {37};
Line Loop(41) = {9, 40, -31, -36};
Ruled Surface(41) = {41};
Line Loop(45) = {10, 44, -32, -40};
Ruled Surface(45) = {45};
Line Loop(49) = {11, 35, -33, -44};
Ruled Surface(49) = {49};
Line Loop(50) = {30, 31, 32, 33};
Plane Surface(50) = {50};
Line Loop(52) = {53, 54, 55, 56};
Plane Surface(52) = {52};
Line Loop(57) = {58, 59, 60, 61};
Plane Surface(57) = {57};
Line Loop(62) = {53, 64, -58, 66};
Ruled Surface(62) = {62};
Line Loop(67) = {54, 69, -59, -64};
Ruled Surface(67) = {67};
Line Loop(72) = {55, 74, -60, -69};
Ruled Surface(72) = {72};
Line Loop(77) = {56, -66, -61, -74};
Ruled Surface(77) = {77};
Line Loop(88) = {89, 90, 91, 92};
Plane Surface(88) = {88};
Line Loop(93) = {58, 95, -89, 97};
Ruled Surface(93) = {93};
Line Loop(98) = {59, 100, -90, -95};
Ruled Surface(98) = {98};
Line Loop(103) = {60, 105, -91, -100};
Ruled Surface(103) = {103};
Line Loop(108) = {61, -97, -92, -105};
Ruled Surface(108) = {108};
Line Loop(113) = {109, 112, -110, -111};
Ruled Surface(113) = {113};
Line Loop(139) = {115, 114, -116, -110};
Plane Surface(139) = {139};
Line Loop(141) = {126, -116, -112, 124};
Plane Surface(141) = {141};
Line Loop(143) = {118, -115, -111, 119};
Plane Surface(143) = {143};
Line Loop(145) = {122, -124, -109, 119};
Plane Surface(145) = {145};
Line Loop(147) = {1, 2, 3, 4, -118, 122, 126, -114, -56, -55, -54, -53};
Plane Surface(147) = {147};
Surface Loop(1) = {6, 28, 15, 19, 23, 27};
Volume(1) = {1};
Surface Loop(2) = {28, 50, 37, 41, 45, 49};
Volume(2) = {2};
Surface Loop(51) = {52, 57, 62, 67, 72, 77};
Volume(51) = {51};
Surface Loop(82) = {57, 88, 93, 98, 103, 108};
Volume(82) = {82};
Surface Loop(149) = {113, 145, 147, 143, 139, 141, 37, 41, 45, 49, 50, 88, 93, 98, 103, 108, 15, 19, 23, 27, 62, 67, 72, 77};
Volume(149) = {149};
Physical Surface("NegTerminal") = {52};
Physical Surface("PosTerminal") = {6};
Physical Surface("Housing") = {113, 139, 141, 143, 145, 147};
Physical Surface("NegGridToMass") = {57};
Physical Surface("PosGridToMass") = {28};
Physical Surface("PosElecToMass") = {37, 41, 45, 49, 50};
Physical Surface("NegElecToMass") = {88, 93, 98, 103, 108};
Physical Volume("PosGrid") = {1};
Physical Volume("NegGrid") = {51};
Physical Volume("PosMass") = {2};
Physical Volume("NegMass") = {82};
Physical Volume("Electrolyte") = {149};
